<svg id="visual" viewBox="0 0 1479 655" width="1479" height="655" xmlns="http://www.w3.org/2000/svg" xmlns:xlink="http://www.w3.org/1999/xlink" version="1.1"><rect x="0" y="0" width="1479" height="655" fill="#adaed5"></rect><path d="M1355 655L1360.7 639.3C1366.3 623.7 1377.7 592.3 1380.5 561.2C1383.3 530 1377.7 499 1359.3 467.8C1341 436.7 1310 405.3 1305.8 374.2C1301.7 343 1324.3 312 1327.5 280.8C1330.7 249.7 1314.3 218.3 1304.3 187.2C1294.3 156 1290.7 125 1301.3 93.8C1312 62.7 1337 31.3 1349.5 15.7L1362 0L1479 0L1479 15.7C1479 31.3 1479 62.7 1479 93.8C1479 125 1479 156 1479 187.2C1479 218.3 1479 249.7 1479 280.8C1479 312 1479 343 1479 374.2C1479 405.3 1479 436.7 1479 467.8C1479 499 1479 530 1479 561.2C1479 592.3 1479 623.7 1479 639.3L1479 655Z" fill="#4f4b85" stroke-linecap="round" stroke-linejoin="miter"></path></svg>